<svg fill="none" xmlns="http://www.w3.org/2000/svg" viewBox="0 0 213 196">
  <path d="M3.7 2.4a1.5 1.5 0 1 1-3 0 1.5 1.5 0 0 1 3 0Zm19 0a1.5 1.5 0 1 1-3 0 1.5 1.5 0 0 1 3 0Zm18.9 0a1.5 1.5 0 1 1-3 0 1.5 1.5 0 0 1 3 0Zm19 0a1.5 1.5 0 1 1-3 0 1.5 1.5 0 0 1 3 0Zm19 0a1.5 1.5 0 1 1-3 0 1.5 1.5 0 0 1 3 0Zm18.9 0a1.5 1.5 0 1 1-3 0 1.5 1.5 0 0 1 3 0Zm19 0a1.5 1.5 0 1 1-3 0 1.5 1.5 0 0 1 3 0Zm19 0a1.5 1.5 0 1 1-3 0 1.5 1.5 0 0 1 3 0Zm18.9 0a1.5 1.5 0 1 1-3 0 1.5 1.5 0 0 1 3 0Zm19 0a1.5 1.5 0 1 1-3 0 1.5 1.5 0 0 1 3 0Zm19 0a1.5 1.5 0 1 1-3 0 1.5 1.5 0 0 1 3 0Zm18.9 0a1.5 1.5 0 1 1-3 0 1.5 1.5 0 0 1 3 0ZM3.7 21.6a1.5 1.5 0 1 1-3 0 1.5 1.5 0 0 1 3 0Zm19 0a1.5 1.5 0 1 1-3 0 1.5 1.5 0 0 1 3 0Zm18.9 0a1.5 1.5 0 1 1-3 0 1.5 1.5 0 0 1 3 0Zm19 0a1.5 1.5 0 1 1-3 0 1.5 1.5 0 0 1 3 0Zm19 0a1.5 1.5 0 1 1-3 0 1.5 1.5 0 0 1 3 0Zm18.9 0a1.5 1.5 0 1 1-3 0 1.5 1.5 0 0 1 3 0Zm19 0a1.5 1.5 0 1 1-3 0 1.5 1.5 0 0 1 3 0Zm19 0a1.5 1.5 0 1 1-3 0 1.5 1.5 0 0 1 3 0Zm18.9 0a1.5 1.5 0 1 1-3 0 1.5 1.5 0 0 1 3 0Zm19 0a1.5 1.5 0 1 1-3 0 1.5 1.5 0 0 1 3 0Zm19 0a1.5 1.5 0 1 1-3 0 1.5 1.5 0 0 1 3 0Zm18.9 0a1.5 1.5 0 1 1-3 0 1.5 1.5 0 0 1 3 0ZM3.7 40.8a1.5 1.5 0 1 1-3 0 1.5 1.5 0 0 1 3 0Zm19 0a1.5 1.5 0 1 1-3 0 1.5 1.5 0 0 1 3 0Zm18.9 0a1.5 1.5 0 1 1-3 0 1.5 1.5 0 0 1 3 0Zm19 0a1.5 1.5 0 1 1-3 0 1.5 1.5 0 0 1 3 0Zm19 0a1.5 1.5 0 1 1-3 0 1.5 1.5 0 0 1 3 0Zm18.9 0a1.5 1.5 0 1 1-3 0 1.5 1.5 0 0 1 3 0Zm19 0a1.5 1.5 0 1 1-3 0 1.5 1.5 0 0 1 3 0Zm19 0a1.5 1.5 0 1 1-3 0 1.5 1.5 0 0 1 3 0Zm18.9 0a1.5 1.5 0 1 1-3 0 1.5 1.5 0 0 1 3 0Zm19 0a1.5 1.5 0 1 1-3 0 1.5 1.5 0 0 1 3 0Zm19 0a1.5 1.5 0 1 1-3 0 1.5 1.5 0 0 1 3 0Zm18.9 0a1.5 1.5 0 1 1-3 0 1.5 1.5 0 0 1 3 0ZM3.7 60.1a1.5 1.5 0 1 1-3 0 1.5 1.5 0 0 1 3 0Zm19 0a1.5 1.5 0 1 1-3 0 1.5 1.5 0 0 1 3 0Zm18.9 0a1.5 1.5 0 1 1-3 0 1.5 1.5 0 0 1 3 0Zm19 0a1.5 1.5 0 1 1-3 0 1.5 1.5 0 0 1 3 0Zm19 0a1.5 1.5 0 1 1-3 0 1.5 1.5 0 0 1 3 0Zm18.9 0a1.5 1.5 0 1 1-3 0 1.5 1.5 0 0 1 3 0Zm19 0a1.5 1.5 0 1 1-3 0 1.5 1.5 0 0 1 3 0Zm19 0a1.5 1.5 0 1 1-3 0 1.5 1.5 0 0 1 3 0Zm18.9 0a1.5 1.5 0 1 1-3 0 1.5 1.5 0 0 1 3 0Zm19 0a1.5 1.5 0 1 1-3 0 1.5 1.5 0 0 1 3 0Zm19 0a1.5 1.5 0 1 1-3 0 1.5 1.5 0 0 1 3 0Zm18.9 0a1.5 1.5 0 1 1-3 0 1.5 1.5 0 0 1 3 0ZM3.7 79.3a1.5 1.5 0 1 1-3 0 1.5 1.5 0 0 1 3 0Zm19 0a1.5 1.5 0 1 1-3 0 1.5 1.5 0 0 1 3 0Zm18.9 0a1.5 1.5 0 1 1-3 0 1.5 1.5 0 0 1 3 0Zm19 0a1.5 1.5 0 1 1-3 0 1.5 1.5 0 0 1 3 0Zm19 0a1.5 1.5 0 1 1-3 0 1.5 1.5 0 0 1 3 0Zm18.9 0a1.5 1.5 0 1 1-3 0 1.5 1.5 0 0 1 3 0Zm19 0a1.5 1.5 0 1 1-3 0 1.5 1.5 0 0 1 3 0Zm19 0a1.5 1.5 0 1 1-3 0 1.5 1.5 0 0 1 3 0Zm18.9 0a1.5 1.5 0 1 1-3 0 1.5 1.5 0 0 1 3 0Zm19 0a1.5 1.5 0 1 1-3 0 1.5 1.5 0 0 1 3 0Zm19 0a1.5 1.5 0 1 1-3 0 1.5 1.5 0 0 1 3 0Zm18.9 0a1.5 1.5 0 1 1-3 0 1.5 1.5 0 0 1 3 0ZM3.7 98.5a1.5 1.5 0 1 1-3 0 1.5 1.5 0 0 1 3 0Zm19 0a1.5 1.5 0 1 1-3 0 1.5 1.5 0 0 1 3 0Zm18.9 0a1.5 1.5 0 1 1-3 0 1.5 1.5 0 0 1 3 0Zm19 0a1.5 1.5 0 1 1-3 0 1.5 1.5 0 0 1 3 0Zm19 0a1.5 1.5 0 1 1-3 0 1.5 1.5 0 0 1 3 0Zm18.9 0a1.5 1.5 0 1 1-3 0 1.5 1.5 0 0 1 3 0Zm19 0a1.5 1.5 0 1 1-3 0 1.5 1.5 0 0 1 3 0Zm19 0a1.5 1.5 0 1 1-3 0 1.5 1.5 0 0 1 3 0Zm18.9 0a1.5 1.5 0 1 1-3 0 1.5 1.5 0 0 1 3 0Zm19 0a1.5 1.5 0 1 1-3 0 1.5 1.5 0 0 1 3 0Zm19 0a1.5 1.5 0 1 1-3 0 1.5 1.5 0 0 1 3 0Zm18.9 0a1.5 1.5 0 1 1-3 0 1.5 1.5 0 0 1 3 0ZM3.7 117.7a1.5 1.5 0 1 1-3 0 1.5 1.5 0 0 1 3 0Zm19 0a1.5 1.5 0 1 1-3 0 1.5 1.5 0 0 1 3 0Zm18.9 0a1.5 1.5 0 1 1-3 0 1.5 1.5 0 0 1 3 0Zm19 0a1.5 1.5 0 1 1-3 0 1.5 1.5 0 0 1 3 0Zm19 0a1.5 1.5 0 1 1-3 0 1.5 1.5 0 0 1 3 0Zm18.9 0a1.5 1.5 0 1 1-3 0 1.5 1.5 0 0 1 3 0Zm19 0a1.5 1.5 0 1 1-3 0 1.5 1.5 0 0 1 3 0Zm19 0a1.5 1.5 0 1 1-3 0 1.5 1.5 0 0 1 3 0Zm18.9 0a1.5 1.5 0 1 1-3 0 1.5 1.5 0 0 1 3 0Zm19 0a1.5 1.5 0 1 1-3 0 1.5 1.5 0 0 1 3 0Zm19 0a1.5 1.5 0 1 1-3 0 1.5 1.5 0 0 1 3 0Zm18.9 0a1.5 1.5 0 1 1-3 0 1.5 1.5 0 0 1 3 0ZM3.7 137a1.5 1.5 0 1 1-3 0 1.5 1.5 0 0 1 3 0Zm19 0a1.5 1.5 0 1 1-3 0 1.5 1.5 0 0 1 3 0Zm18.9 0a1.5 1.5 0 1 1-3 0 1.5 1.5 0 0 1 3 0Zm19 0a1.5 1.5 0 1 1-3 0 1.5 1.5 0 0 1 3 0Zm19 0a1.5 1.5 0 1 1-3 0 1.5 1.5 0 0 1 3 0Zm18.9 0a1.5 1.5 0 1 1-3 0 1.5 1.5 0 0 1 3 0Zm19 0a1.5 1.5 0 1 1-3 0 1.5 1.5 0 0 1 3 0Zm19 0a1.5 1.5 0 1 1-3 0 1.5 1.5 0 0 1 3 0Zm18.9 0a1.5 1.5 0 1 1-3 0 1.5 1.5 0 0 1 3 0Zm19 0a1.5 1.5 0 1 1-3 0 1.5 1.5 0 0 1 3 0Zm19 0a1.5 1.5 0 1 1-3 0 1.5 1.5 0 0 1 3 0Zm18.9 0a1.5 1.5 0 1 1-3 0 1.5 1.5 0 0 1 3 0ZM3.7 156.2a1.5 1.5 0 1 1-3 0 1.5 1.5 0 0 1 3 0Zm19 0a1.5 1.5 0 1 1-3 0 1.5 1.5 0 0 1 3 0Zm18.9 0a1.5 1.5 0 1 1-3 0 1.5 1.5 0 0 1 3 0Zm19 0a1.5 1.5 0 1 1-3 0 1.5 1.5 0 0 1 3 0Zm19 0a1.5 1.5 0 1 1-3 0 1.5 1.5 0 0 1 3 0Zm18.9 0a1.5 1.5 0 1 1-3 0 1.5 1.5 0 0 1 3 0Zm19 0a1.5 1.5 0 1 1-3 0 1.5 1.5 0 0 1 3 0Zm19 0a1.5 1.5 0 1 1-3 0 1.5 1.5 0 0 1 3 0Zm18.9 0a1.5 1.5 0 1 1-3 0 1.5 1.5 0 0 1 3 0Zm19 0a1.5 1.5 0 1 1-3 0 1.5 1.5 0 0 1 3 0Zm19 0a1.5 1.5 0 1 1-3 0 1.5 1.5 0 0 1 3 0Zm18.9 0a1.5 1.5 0 1 1-3 0 1.5 1.5 0 0 1 3 0ZM3.7 175.4a1.5 1.5 0 1 1-3 0 1.5 1.5 0 0 1 3 0Zm19 0a1.5 1.5 0 1 1-3 0 1.5 1.5 0 0 1 3 0Zm18.9 0a1.5 1.5 0 1 1-3 0 1.5 1.5 0 0 1 3 0Zm19 0a1.5 1.5 0 1 1-3 0 1.5 1.5 0 0 1 3 0Zm19 0a1.5 1.5 0 1 1-3 0 1.5 1.5 0 0 1 3 0Zm18.9 0a1.5 1.5 0 1 1-3 0 1.5 1.5 0 0 1 3 0Zm19 0a1.5 1.5 0 1 1-3 0 1.5 1.5 0 0 1 3 0Zm19 0a1.5 1.5 0 1 1-3 0 1.5 1.5 0 0 1 3 0Zm18.9 0a1.5 1.5 0 1 1-3 0 1.5 1.5 0 0 1 3 0Zm19 0a1.5 1.5 0 1 1-3 0 1.5 1.5 0 0 1 3 0Zm19 0a1.5 1.5 0 1 1-3 0 1.5 1.5 0 0 1 3 0Zm18.9 0a1.5 1.5 0 1 1-3 0 1.5 1.5 0 0 1 3 0ZM3.7 194.6a1.5 1.5 0 1 1-3 0 1.5 1.5 0 0 1 3 0Zm19 0a1.5 1.5 0 1 1-3 0 1.5 1.5 0 0 1 3 0Zm18.9 0a1.5 1.5 0 1 1-3 0 1.5 1.5 0 0 1 3 0Zm19 0a1.5 1.5 0 1 1-3 0 1.5 1.5 0 0 1 3 0Zm19 0a1.5 1.5 0 1 1-3 0 1.5 1.5 0 0 1 3 0Zm18.9 0a1.5 1.5 0 1 1-3 0 1.5 1.5 0 0 1 3 0Zm19 0a1.5 1.5 0 1 1-3 0 1.5 1.5 0 0 1 3 0Zm19 0a1.5 1.5 0 1 1-3 0 1.5 1.5 0 0 1 3 0Zm18.9 0a1.5 1.5 0 1 1-3 0 1.5 1.5 0 0 1 3 0Zm19 0a1.5 1.5 0 1 1-3 0 1.5 1.5 0 0 1 3 0Zm19 0a1.5 1.5 0 1 1-3 0 1.5 1.5 0 0 1 3 0Zm18.9 0a1.5 1.5 0 1 1-3 0 1.5 1.5 0 0 1 3 0Z" fill="#FD853A"/>
</svg>
